<svg xmlns="http://www.w3.org/2000/svg" viewBox="0 0 800 600" width="800" height="600">
  <rect width="800" height="600" fill="#667eea"/>
  <rect x="50" y="80" width="700" height="440" rx="16" fill="#fff" fill-opacity="0.08"/>
  <circle cx="280" cy="220" r="80" fill="#fff" fill-opacity="0.15"/>
  <path d="M200 220 a80 80 0 1 1 160 0 a80 80 0 1 1 -160 0" fill="none" stroke="#fff" stroke-width="2" stroke-opacity="0.3"/>
  <rect x="390" y="160" width="300" height="20" rx="6" fill="#fff" fill-opacity="0.25"/>
  <rect x="390" y="195" width="240" height="16" rx="6" fill="#fff" fill-opacity="0.18"/>
  <rect x="390" y="225" width="200" height="16" rx="6" fill="#fff" fill-opacity="0.18"/>
  <rect x="100" y="340" width="600" height="12" rx="6" fill="#fff" fill-opacity="0.2"/>
  <rect x="100" y="368" width="480" height="12" rx="6" fill="#fff" fill-opacity="0.15"/>
  <rect x="100" y="396" width="520" height="12" rx="6" fill="#fff" fill-opacity="0.15"/>
  <text x="400" y="510" font-family="system-ui, sans-serif" font-size="22" fill="#fff" fill-opacity="0.5" text-anchor="middle">Campaign Image</text>
</svg>
